<?xml version="1.0" encoding="UTF-8" standalone="no"?>
<!DOCTYPE svg PUBLIC "-//W3C//DTD SVG 1.1//EN" "http://www.w3.org/Graphics/SVG/1.1/DTD/svg11.dtd">
<svg width="100%" height="100%" viewBox="0 0 2481 3508" version="1.1" xmlns="http://www.w3.org/2000/svg" xmlns:xlink="http://www.w3.org/1999/xlink" xml:space="preserve" xmlns:serif="http://www.serif.com/" style="fill-rule:evenodd;clip-rule:evenodd;stroke-linecap:square;stroke-miterlimit:1.5;">
    <g opacity="0.4">
        <g id="Layer1">
            <g transform="matrix(1,0,0,1,-825.524,-156.421)">
                <path d="M2052.51,694.19L2971.94,2533.05L1133.08,2533.05L2052.51,694.19Z" style="fill:none;stroke:black;stroke-width:60.42px;"/>
            </g>
            <path d="M1156.37,1998.41L1118.3,1999.08L1106.94,2003.75L1093.58,2007.76L1076.88,2013.77L1067.53,2021.79L1056.85,2029.13L1045.49,2037.15L1030.13,2037.82L1016.1,2046.5L992.057,2051.18L966.007,2040.49L953.316,2027.8L943.965,2012.44" style="fill:none;"/>
            <path d="M923.927,2009.77L905.225,2012.44L923.927,2029.13L934.614,2043.16L941.961,2058.52L953.316,2077.89L960.664,2086.58C972.127,2094.52 980.158,2102.69 972.019,2094.59L994.728,2098.6L1017.44,2095.93L1032.8,2089.25L1045.49,2081.9L1060.19,2070.55L1072.88,2058.52L1085.57,2048.51L1100.93,2037.15L1116.96,2029.13L1134.33,2016.44L1149.02,2006.42L1158.37,2000.41L1136.33,1995.07L1122.97,1995.74L1113.62,1999.08L1105.61,2004.42L1097.59,2007.09L1087.57,2013.11L1073.55,2020.45L1064.86,2025.8L1054.17,2033.14L1039.48,2036.48L1030.8,2042.49L1008.75,2048.51L996.064,2053.18L980.034,2049.84L961.332,2032.48L953.316,2025.8L947.305,2019.12L923.927,2009.77"/>
            <path d="M962.89,1875.72L987.826,1853.45L970.905,1840.99L951.313,1833.86L929.939,1832.08L913.017,1833.86L896.987,1842.77L888.972,1853.45L888.081,1878.39L897.878,1894.42L900.549,1873.94L912.127,1862.36L924.595,1857.91L939.735,1858.8L953.984,1863.25C963.804,1878.13 962.607,1875.15 962.89,1875.72Z"/>
            <path d="M915.244,1491.14L935.282,1469.1L924.595,1457.75L909.233,1449.73L898.546,1446.39L875.168,1448.39L863.145,1451.07L845.779,1459.08L833.756,1469.1L824.405,1477.78L813.718,1493.81L808.374,1505.17L808.374,1523.87L811.046,1531.89L814.385,1520.53L819.061,1507.84L826.408,1499.83L834.424,1491.81L845.779,1483.79L860.473,1477.78L874.5,1474.44L887.859,1473.78L899.213,1476.45L908.565,1483.79L915.244,1491.14"/>
            <g transform="matrix(1,0,0,1,-1.33587,3.33968)">
                <path d="M855.798,1738.28L873.164,1747.63L885.187,1745.63L895.206,1738.95L901.885,1732.94L909.9,1718.24L916.58,1708.22L921.923,1704.88L925.931,1698.87L931.942,1686.85L939.29,1677.5L949.309,1666.81L958.66,1653.45L964.003,1641.43L970.015,1628.74L976.694,1607.37L979.366,1598.02L980.034,1575.97L980.702,1555.93L979.366,1526.55L979.366,1515.86L966.675,1501.16L941.293,1517.86L939.958,1537.23L943.297,1567.96L941.293,1590.67L935.95,1607.37L928.603,1617.38L922.591,1630.74L915.912,1640.76L905.893,1654.12L895.874,1666.81L888.526,1676.83L880.511,1685.51L876.504,1690.86L866.485,1700.21L860.473,1711.56L855.13,1721.58L855.798,1738.28Z"/>
            </g>
            <path d="M991.465,1973.05L978.551,1971.71L961.185,1971.71L950.943,1972.15L929.569,1967.7L909.531,1957.02L899.289,1952.56L890.829,1943.21L879.251,1932.97L869.01,1924.06L858.323,1912.49L854.315,1901.35C850.733,1884.45 851.346,1864.39 852.534,1843.91C853.466,1827.84 856.994,1806.23 852.534,1798.05L835.613,1787.49L825.371,1783.92L812.012,1783.48L803.997,1797.73C797.555,1833.72 792.177,1863.13 799.099,1890.79L806.223,1924.19L812.903,1936.21L821.363,1948.24L831.605,1958.03L841.401,1967.83L853.87,1974.95L864.557,1982.71L874.798,1990.28L893.501,1999.19L908.64,2006.32L922.89,2008.1C926.68,2007.88 932.78,2006.85 936.248,2007.21L952.724,2007.65L989.238,2008.99L991.465,1973.05Z"/>
        </g>
        <g id="Layer3">
            <path d="M1243.92,1762.59L1441.63,1527.48L1397.55,1376.52L1270.64,1321.75L1231.9,1325.76L1202.51,1319.08L1070.26,1371.18L1018.16,1524.8L1217.21,1763.93L1229.23,1747.89L1243.92,1762.59" style="stroke:black;stroke-width:8.8px;stroke-linecap:round;"/>
        </g>
        <g id="cloud">
            <path d="M1091.11,881.28L1118.65,891.775L1144.89,883.904L1173.75,898.334L1202.61,906.205L1228.85,902.269L1257.71,897.022L1283.94,881.28L1304.93,891.775L1344.29,906.205L1366.59,897.022L1394.13,882.592L1234.09,592.68L1091.11,881.28" style="stroke:black;stroke-width:19.91px;stroke-linecap:round;"/>
        </g>
        <g id="bottom-most-leftside-tent" serif:id="bottom most leftside tent">
            <path d="M1169.12,1908.48L1163.78,1911.59L1161.55,1914.71L1154.43,1920.5L1150.87,1923.62L1144.63,1928.52L1141.96,1931.19L1134.84,1937.87L1125.49,1945.44L1121.48,1947.66L1116.13,1954.79L1112.57,1957.46L1106.78,1961.91L1102.78,1965.47L1096.54,1970.37L1092.53,1974.38L1086.75,1979.72L1083.95,1983.16L1076.38,1988.5L1067.03,1991.18L1057.24,1993.4L1046.55,1995.18L1045.21,1951.99L1055.46,1946.65L1066.59,1937.74L1076.83,1929.28L1087.52,1920.82L1095.09,1912.36L1104.88,1903.45L1112.45,1894.55L1114.24,1886.53L1114.24,1851.8L1153.73,1852.37L1165.75,1853.26L1175.1,1904.92L1169.12,1908.48"/>
        </g>
        <g id="little-tent-piecefrom-wave" serif:id="little tent piecefrom wave">
            <path d="M1000.3,2036.03L1021.67,2036.91L1035.92,2029.79C1036.91,2009.9 1035.55,1990.01 1034.14,1970.12L1027.9,1919.36C1017.23,1915.3 1007.7,1918.07 999.404,1928.26L1002.08,1949.64C1005.9,1964.78 1008.94,1979.92 1005.64,1995.06L1000.3,2036.03"/>
        </g>
        <g id="downward-hook-tent" serif:id="downward hook tent">
            <path d="M1133.66,1825.4L1121.64,1815.38L1055.51,1816.72L1040.82,1827.41L1029.46,1835.42L1020.78,1842.77L1008.75,1852.79L998.068,1861.47L986.713,1868.82L977.362,1878.17L966.007,1886.18L954.652,1896.87L941.293,1910.9L933.278,1920.25L923.259,1931.6L917.248,1942.29L920.587,1949.64L925.263,1955.65L964.671,1956.99L978.698,1942.96L988.717,1930.94L999.404,1918.25L1013.43,1906.89L1025.45,1896.87L1041.48,1889.52L1053.51,1880.84L1065.53,1871.49L1078.89,1862.81L1092.25,1854.79L1108.95,1846.78L1132.99,1848.11L1135,1833.42L1133.66,1825.4Z"/>
        </g>
        <g id="Layer7">
            <path d="M1144.35,1682.73C1135.78,1679.96 1140.89,1679.2 1105.61,1684.07L1104.27,1708.11L1140.34,1732.16L1176.41,1746.85L1199.12,1764.22L1209.81,1789.6L1219.16,1814.98L1217.82,1985.98L1172.4,2002.01L1173.74,1947.24L1172.4,1897.81L1163.05,1841.7L1129.65,1812.31L1094.92,1805.63L1062.86,1809.64C1062.86,1809.64 965.802,1810.13 917.251,1809.64C865.06,1809.11 773.956,1764.76 776.985,1714.79C779.732,1669.46 768.969,1629.3 821.068,1573.19C873.167,1517.08 909.236,1499.72 909.236,1499.72L988.053,1436.93C1000.38,1438.99 990.432,1390.35 973.358,1388.84C965.374,1388.13 934.618,1406.21 927.938,1407.54C921.259,1408.88 965.343,1362.12 965.343,1362.12C965.343,1362.12 1005.42,1359.45 1012.1,1366.13C1018.78,1372.81 1025.46,1384.83 1028.13,1395.52C1030.8,1406.21 1037.48,1411.55 1028.13,1430.25C1018.78,1448.95 976.03,1493.04 976.03,1493.04C976.03,1493.04 842.442,1590.56 833.091,1609.26C823.74,1627.96 805.385,1696.15 829.084,1720.14C857.137,1748.53 874.427,1769.48 921.259,1766.89C978.962,1763.71 988.644,1779.99 1048.17,1760.21C1091.64,1745.77 1051.67,1722.46 1066.87,1716.13C1066.87,1716.13 1016.42,1717.13 1012.1,1732.16C1005.22,1756.08 975.34,1725.61 974.694,1701.43C974.365,1689.12 970.686,1639.98 986.717,1627.96C1002.75,1615.94 1022.78,1594.56 1022.78,1594.56C1022.78,1594.56 1026.79,1633.31 1041.49,1639.98C1056.18,1646.66 1070.88,1643.99 1070.88,1643.99C1070.88,1643.99 1073.55,1587.88 1073.55,1589.22C1073.55,1590.56 1144.35,1682.73 1144.35,1682.73"/>
        </g>
        <g id="Layer71" serif:id="Layer7" transform="matrix(-1,0,0,1,2447.59,16.0305)">
            <path d="M1144.35,1682.73C1135.78,1679.96 1140.89,1679.2 1105.61,1684.07L1104.27,1708.11L1140.34,1732.16L1176.41,1746.85L1199.12,1764.22L1209.81,1789.6L1219.16,1814.98L1217.82,1985.98L1172.4,2002.01L1173.74,1947.24L1172.4,1897.81L1163.05,1841.7L1129.65,1812.31L1094.92,1805.63L1062.86,1809.64C1062.86,1809.64 965.802,1810.13 917.251,1809.64C865.06,1809.11 773.956,1764.76 776.985,1714.79C779.732,1669.46 768.969,1629.3 821.068,1573.19C873.167,1517.08 909.236,1499.72 909.236,1499.72L988.053,1436.93C1000.38,1438.99 990.432,1390.35 973.358,1388.84C965.374,1388.13 934.618,1406.21 927.938,1407.54C921.259,1408.88 965.343,1362.12 965.343,1362.12C965.343,1362.12 1005.42,1359.45 1012.1,1366.13C1018.78,1372.81 1025.46,1384.83 1028.13,1395.52C1030.8,1406.21 1037.48,1411.55 1028.13,1430.25C1018.78,1448.95 976.03,1493.04 976.03,1493.04C976.03,1493.04 842.442,1590.56 833.091,1609.26C823.74,1627.96 805.385,1696.15 829.084,1720.14C857.137,1748.53 874.427,1769.48 921.259,1766.89C978.962,1763.71 988.644,1779.99 1048.17,1760.21C1091.64,1745.77 1051.67,1722.46 1066.87,1716.13C1066.87,1716.13 1016.42,1717.13 1012.1,1732.16C1005.22,1756.08 975.34,1725.61 974.694,1701.43C974.365,1689.12 970.686,1639.98 986.717,1627.96C1002.75,1615.94 1022.78,1594.56 1022.78,1594.56C1022.78,1594.56 1026.79,1633.31 1041.49,1639.98C1056.18,1646.66 1070.88,1643.99 1070.88,1643.99C1070.88,1643.99 1073.55,1587.88 1073.55,1589.22C1073.55,1590.56 1144.35,1682.73 1144.35,1682.73"/>
        </g>
        <g id="bottom-most-leftside-tent1" serif:id="bottom most leftside tent">
            <path d="M1169.12,1908.48L1163.78,1911.59L1161.55,1914.71L1154.43,1920.5L1150.87,1923.62L1144.63,1928.52L1141.96,1931.19L1134.84,1937.87L1125.49,1945.44L1121.48,1947.66L1116.13,1954.79L1112.57,1957.46L1106.78,1961.91L1102.78,1965.47L1096.54,1970.37L1092.53,1974.38L1086.75,1979.72L1083.95,1983.16L1076.38,1988.5L1067.03,1991.18L1057.24,1993.4L1046.55,1995.18L1045.21,1951.99L1055.46,1946.65L1066.59,1937.74L1076.83,1929.28L1087.52,1920.82L1095.09,1912.36L1104.88,1903.45L1112.45,1894.55L1114.24,1886.53L1114.24,1851.8L1153.73,1852.37L1165.75,1853.26L1175.1,1904.92L1169.12,1908.48"/>
            <g transform="matrix(-1,0,0,1,2430.5,5.34349)">
                <path d="M915.244,1491.14L935.282,1469.1L924.595,1457.75L909.233,1449.73L898.546,1446.39L875.168,1448.39L863.145,1451.07L845.779,1459.08L833.756,1469.1L824.405,1477.78L813.718,1493.81L808.374,1505.17L808.374,1523.87L811.046,1531.89L814.385,1520.53L819.061,1507.84L826.408,1499.83L834.424,1491.81L845.779,1483.79L860.473,1477.78L874.5,1474.44L887.859,1473.78L899.213,1476.45L908.565,1483.79L915.244,1491.14"/>
            </g>
            <g transform="matrix(-1,0,0,1,2431.84,8.68318)">
                <path d="M855.798,1738.28L873.164,1747.63L885.187,1745.63L895.206,1738.95L901.885,1732.94L909.9,1718.24L916.58,1708.22L921.923,1704.88L925.931,1698.87L931.942,1686.85L939.29,1677.5L949.309,1666.81L958.66,1653.45L964.003,1641.43L970.015,1628.74L976.694,1607.37L979.366,1598.02L980.034,1575.97L980.702,1555.93L979.366,1526.55L979.366,1515.86L966.675,1501.16L941.293,1517.86L939.958,1537.23L943.297,1567.96L941.293,1590.67L935.95,1607.37L928.603,1617.38L922.591,1630.74L915.912,1640.76L905.893,1654.12L895.874,1666.81L888.526,1676.83L880.511,1685.51L876.504,1690.86L866.485,1700.21L860.473,1711.56L855.13,1721.58L855.798,1738.28Z"/>
            </g>
            <g transform="matrix(-1,0,0,1,2430.5,5.34349)">
                <path d="M991.465,1973.05L978.551,1971.71L961.185,1971.71L950.943,1972.15L929.569,1967.7L909.531,1957.02L899.289,1952.56L890.829,1943.21L879.251,1932.97L869.01,1924.06L858.323,1912.49L854.315,1901.35C850.733,1884.45 851.346,1864.39 852.534,1843.91C853.466,1827.84 856.994,1806.23 852.534,1798.05L835.613,1787.49L825.371,1783.92L812.012,1783.48L803.997,1797.73C797.555,1833.72 792.177,1863.13 799.099,1890.79L806.223,1924.19L812.903,1936.21L821.363,1948.24L831.605,1958.03L841.401,1967.83L853.87,1974.95L864.557,1982.71L874.798,1990.28L893.501,1999.19L908.64,2006.32L922.89,2008.1C926.68,2007.88 932.78,2006.85 936.248,2007.21L952.724,2007.65L989.238,2008.99L991.465,1973.05Z"/>
            </g>
            <g transform="matrix(-1,0,0,1,2430.5,5.34349)">
                <path d="M1169.12,1908.48L1163.78,1911.59L1161.55,1914.71L1154.43,1920.5L1150.87,1923.62L1144.63,1928.52L1141.96,1931.19L1134.84,1937.87L1125.49,1945.44L1121.48,1947.66L1116.13,1954.79L1112.57,1957.46L1106.78,1961.91L1102.78,1965.47L1096.54,1970.37L1092.53,1974.38L1086.75,1979.72L1083.95,1983.16L1076.38,1988.5L1067.03,1991.18L1057.24,1993.4L1046.55,1995.18L1045.21,1951.99L1055.46,1946.65L1066.59,1937.74L1076.83,1929.28L1087.52,1920.82L1095.09,1912.36L1104.88,1903.45L1112.45,1894.55L1114.24,1886.53L1114.24,1851.8L1153.73,1852.37L1165.75,1853.26L1175.1,1904.92L1169.12,1908.48"/>
            </g>
        </g>
        <g id="little-tent-piecefrom-wave1" serif:id="little tent piecefrom wave">
            <path d="M1000.3,2036.03L1021.67,2036.91L1035.92,2029.79C1036.91,2009.9 1035.55,1990.01 1034.14,1970.12L1027.9,1919.36C1017.23,1915.3 1007.7,1918.07 999.404,1928.26L1002.08,1949.64C1005.9,1964.78 1008.94,1979.92 1005.64,1995.06L1000.3,2036.03"/>
            <g transform="matrix(-1,0,0,1,2431.97,13.3587)">
                <path d="M962.89,1875.72L987.826,1853.45L970.905,1840.99L951.313,1833.86L929.939,1832.08L913.017,1833.86L896.987,1842.77L888.972,1853.45L888.081,1878.39L897.878,1894.42L900.549,1873.94L912.127,1862.36L924.595,1857.91L939.735,1858.8L953.984,1863.25C963.804,1878.13 962.607,1875.15 962.89,1875.72Z"/>
            </g>
            <g transform="matrix(-1,0,0,1,2431.97,13.3587)">
                <path d="M1000.3,2036.03L1021.67,2036.91L1035.92,2029.79C1036.91,2009.9 1035.55,1990.01 1034.14,1970.12L1027.9,1919.36C1017.23,1915.3 1007.7,1918.07 999.404,1928.26L1002.08,1949.64C1005.9,1964.78 1008.94,1979.92 1005.64,1995.06L1000.3,2036.03"/>
            </g>
        </g>
        <g id="downward-hook-tent1" serif:id="downward hook tent">
            <path d="M1133.66,1825.4L1121.64,1815.38L1055.51,1816.72L1040.82,1827.41L1029.46,1835.42L1020.78,1842.77L1008.75,1852.79L998.068,1861.47L986.713,1868.82L977.362,1878.17L966.007,1886.18L954.652,1896.87L941.293,1910.9L933.278,1920.25L923.259,1931.6L917.248,1942.29L920.587,1949.64L925.263,1955.65L964.671,1956.99L978.698,1942.96L988.717,1930.94L999.404,1918.25L1013.43,1906.89L1025.45,1896.87L1041.48,1889.52L1053.51,1880.84L1065.53,1871.49L1078.89,1862.81L1092.25,1854.79L1108.95,1846.78L1132.99,1848.11L1135,1833.42L1133.66,1825.4Z"/>
            <g transform="matrix(-1,0,0,1,2445.66,10.687)">
                <path d="M923.927,2009.77L905.225,2012.44L923.927,2029.13L934.614,2043.16L941.961,2058.52L953.316,2077.89L960.664,2086.58C972.127,2094.52 980.158,2102.69 972.019,2094.59L994.728,2098.6L1017.44,2095.93L1032.8,2089.25L1045.49,2081.9L1060.19,2070.55L1072.88,2058.52L1085.57,2048.51L1100.93,2037.15L1116.96,2029.13L1134.33,2016.44L1149.02,2006.42L1158.37,2000.41L1136.33,1995.07L1122.97,1995.74L1113.62,1999.08L1105.61,2004.42L1097.59,2007.09L1087.57,2013.11L1073.55,2020.45L1064.86,2025.8L1054.17,2033.14L1039.48,2036.48L1030.8,2042.49L1008.75,2048.51L996.064,2053.18L980.034,2049.84L961.332,2032.48L953.316,2025.8L947.305,2019.12L923.927,2009.77"/>
            </g>
            <g transform="matrix(-1,0,0,1,2445.66,10.687)">
                <path d="M1133.66,1825.4L1121.64,1815.38L1055.51,1816.72L1040.82,1827.41L1029.46,1835.42L1020.78,1842.77L1008.75,1852.79L998.068,1861.47L986.713,1868.82L977.362,1878.17L966.007,1886.18L954.652,1896.87L941.293,1910.9L933.278,1920.25L923.259,1931.6L917.248,1942.29L920.587,1949.64L925.263,1955.65L964.671,1956.99L978.698,1942.96L988.717,1930.94L999.404,1918.25L1013.43,1906.89L1025.45,1896.87L1041.48,1889.52L1053.51,1880.84L1065.53,1871.49L1078.89,1862.81L1092.25,1854.79L1108.95,1846.78L1132.99,1848.11L1135,1833.42L1133.66,1825.4Z"/>
            </g>
        </g>
        <g id="Layer72" serif:id="Layer7">
            <path d="M1144.35,1682.73C1135.78,1679.96 1140.89,1679.2 1105.61,1684.07L1104.27,1708.11L1140.34,1732.16L1176.41,1746.85L1199.12,1764.22L1209.81,1789.6L1219.16,1814.98L1217.82,1985.98L1172.4,2002.01L1173.74,1947.24L1172.4,1897.81L1163.05,1841.7L1129.65,1812.31L1094.92,1805.63L1062.86,1809.64C1062.86,1809.64 965.802,1810.13 917.251,1809.64C865.06,1809.11 773.956,1764.76 776.985,1714.79C779.732,1669.46 768.969,1629.3 821.068,1573.19C873.167,1517.08 909.236,1499.72 909.236,1499.72L988.053,1436.93C1000.38,1438.99 990.432,1390.35 973.358,1388.84C965.374,1388.13 934.618,1406.21 927.938,1407.54C921.259,1408.88 965.343,1362.12 965.343,1362.12C965.343,1362.12 1005.42,1359.45 1012.1,1366.13C1018.78,1372.81 1025.46,1384.83 1028.13,1395.52C1030.8,1406.21 1037.48,1411.55 1028.13,1430.25C1018.78,1448.95 976.03,1493.04 976.03,1493.04C976.03,1493.04 842.442,1590.56 833.091,1609.26C823.74,1627.96 805.385,1696.15 829.084,1720.14C857.137,1748.53 874.427,1769.48 921.259,1766.89C978.962,1763.71 988.644,1779.99 1048.17,1760.21C1091.64,1745.77 1051.67,1722.46 1066.87,1716.13C1066.87,1716.13 1016.42,1717.13 1012.1,1732.16C1005.22,1756.08 975.34,1725.61 974.694,1701.43C974.365,1689.12 970.686,1639.98 986.717,1627.96C1002.75,1615.94 1022.78,1594.56 1022.78,1594.56C1022.78,1594.56 1026.79,1633.31 1041.49,1639.98C1056.18,1646.66 1070.88,1643.99 1070.88,1643.99C1070.88,1643.99 1073.55,1587.88 1073.55,1589.22C1073.55,1590.56 1144.35,1682.73 1144.35,1682.73"/>
        </g>
        <g id="Layer4">
            <path d="M469.942,2136.35C469.942,2136.35 501.112,2072.22 592.842,2018.79C684.572,1965.35 770.959,1973.37 771.849,1972.48C772.74,1971.59 813.707,1974.26 851.111,1989.4C888.516,2004.54 908.999,2018.79 912.561,2021.46C916.124,2024.13 938.388,2047.29 942.841,2057.08C947.294,2066.88 958.872,2098.94 958.872,2099.83C958.872,2100.72 959.762,2131.89 959.762,2141.69C959.762,2151.49 943.732,2197.8 936.607,2206.7C929.482,2215.61 934.826,2181.76 922.358,2161.28C909.89,2140.8 904.546,2126.55 893.859,2119.42C883.172,2112.3 882.282,2095.38 852.892,2089.14C823.503,2082.91 808.363,2085.58 797.676,2086.47C786.989,2087.36 752.257,2101.61 750.475,2106.07C748.694,2110.52 731.773,2119.42 726.43,2134.56C721.086,2149.7 716.633,2147.92 710.399,2198.69C704.165,2249.45 727.32,2283.29 736.226,2289.53C745.132,2295.76 774.521,2344.74 830.628,2350.09C886.735,2355.43 566.185,2350.09 566.185,2350.09L364.273,2350.98L347.352,2350.09L445.316,2155.94L469.942,2136.35Z" style="stroke:black;stroke-width:8.8px;stroke-linecap:round;"/>
            <path d="M819.646,2349.2L361.886,2347.41L466.975,2134.56" style="fill:none;stroke:black;stroke-width:8.8px;stroke-linecap:round;"/>
        </g>
        <g id="Layer6">
            <path d="M787.583,2107.98C787.583,2107.98 805.75,2113.32 805.75,2115.46C805.75,2117.6 819.109,2118.67 822.315,2136.84C825.521,2155 822.315,2166.22 822.315,2173.7C822.315,2181.19 826.59,2195.08 836.208,2199.89C845.827,2204.7 843.689,2206.3 859.72,2202.56C875.75,2198.82 877.353,2186.53 878.422,2183.86C879.491,2181.19 877.888,2199.89 881.094,2204.7C884.3,2209.51 884.3,2221.8 903.536,2227.14C922.773,2232.48 919.567,2224.47 919.567,2224.47C919.567,2224.47 905.674,2163.55 898.193,2159.81C890.712,2156.07 892.849,2132.56 847.964,2109.05C803.079,2085.54 789.104,2112.76 791.015,2109.04"/>
        </g>
        <g id="Layer41" serif:id="Layer4" transform="matrix(1,0,0,1,545.036,-2.67175)">
            <path d="M469.942,2136.35C469.942,2136.35 501.112,2072.22 592.842,2018.79C684.572,1965.35 770.959,1973.37 771.849,1972.48C772.74,1971.59 813.707,1974.26 851.111,1989.4C888.516,2004.54 908.999,2018.79 912.561,2021.46C916.124,2024.13 938.388,2047.29 942.841,2057.08C947.294,2066.88 958.872,2098.94 958.872,2099.83C958.872,2100.72 959.762,2131.89 959.762,2141.69C959.762,2151.49 943.732,2197.8 936.607,2206.7C929.482,2215.61 934.826,2181.76 922.358,2161.28C909.89,2140.8 904.546,2126.55 893.859,2119.42C883.172,2112.3 882.282,2095.38 852.892,2089.14C823.503,2082.91 808.363,2085.58 797.676,2086.47C786.989,2087.36 752.257,2101.61 750.475,2106.07C748.694,2110.52 731.773,2119.42 726.43,2134.56C721.086,2149.7 716.633,2147.92 710.399,2198.69C704.165,2249.45 727.32,2283.29 736.226,2289.53C745.132,2295.76 774.521,2344.74 830.628,2350.09C886.735,2355.43 566.185,2350.09 566.185,2350.09L364.273,2350.98L347.352,2350.09L445.316,2155.94L469.942,2136.35Z" style="stroke:black;stroke-width:8.8px;stroke-linecap:round;"/>
            <path d="M819.646,2349.2L361.886,2347.41L466.975,2134.56" style="fill:none;stroke:black;stroke-width:8.8px;stroke-linecap:round;"/>
        </g>
        <g id="Layer61" serif:id="Layer6" transform="matrix(1,0,0,1,545.036,-2.67175)">
            <path d="M787.583,2107.98C787.583,2107.98 805.75,2113.32 805.75,2115.46C805.75,2117.6 819.109,2118.67 822.315,2136.84C825.521,2155 822.315,2166.22 822.315,2173.7C822.315,2181.19 826.59,2195.08 836.208,2199.89C845.827,2204.7 843.689,2206.3 859.72,2202.56C875.75,2198.82 877.353,2186.53 878.422,2183.86C879.491,2181.19 877.888,2199.89 881.094,2204.7C884.3,2209.51 884.3,2221.8 903.536,2227.14C922.773,2232.48 919.567,2224.47 919.567,2224.47C919.567,2224.47 905.674,2163.55 898.193,2159.81C890.712,2156.07 892.849,2132.56 847.964,2109.05C803.079,2085.54 789.104,2112.76 791.015,2109.04"/>
        </g>
        <g id="Layer42" serif:id="Layer4" transform="matrix(1,0,0,1,1082.06,5.34349)">
            <path d="M469.942,2136.35C469.942,2136.35 501.112,2072.22 592.842,2018.79C684.572,1965.35 770.959,1973.37 771.849,1972.48C772.74,1971.59 813.707,1974.26 851.111,1989.4C888.516,2004.54 908.999,2018.79 912.561,2021.46C916.124,2024.13 938.388,2047.29 942.841,2057.08C947.294,2066.88 958.872,2098.94 958.872,2099.83C958.872,2100.72 959.762,2131.89 959.762,2141.69C959.762,2151.49 943.732,2197.8 936.607,2206.7C929.482,2215.61 934.826,2181.76 922.358,2161.28C909.89,2140.8 904.546,2126.55 893.859,2119.42C883.172,2112.3 882.282,2095.38 852.892,2089.14C823.503,2082.91 808.363,2085.58 797.676,2086.47C786.989,2087.36 752.257,2101.61 750.475,2106.07C748.694,2110.52 731.773,2119.42 726.43,2134.56C721.086,2149.7 716.633,2147.92 710.399,2198.69C704.165,2249.45 727.32,2283.29 736.226,2289.53C745.132,2295.76 774.521,2344.74 830.628,2350.09C886.735,2355.43 566.185,2350.09 566.185,2350.09L364.273,2350.98L347.352,2350.09L445.316,2155.94L469.942,2136.35Z" style="stroke:black;stroke-width:8.8px;stroke-linecap:round;"/>
            <path d="M819.646,2349.2L361.886,2347.41L466.975,2134.56" style="fill:none;stroke:black;stroke-width:8.8px;stroke-linecap:round;"/>
        </g>
        <g id="Layer62" serif:id="Layer6" transform="matrix(1,0,0,1,1082.06,5.34349)">
            <path d="M787.583,2107.98C787.583,2107.98 805.75,2113.32 805.75,2115.46C805.75,2117.6 819.109,2118.67 822.315,2136.84C825.521,2155 822.315,2166.22 822.315,2173.7C822.315,2181.19 826.59,2195.08 836.208,2199.89C845.827,2204.7 843.689,2206.3 859.72,2202.56C875.75,2198.82 877.353,2186.53 878.422,2183.86C879.491,2181.19 877.888,2199.89 881.094,2204.7C884.3,2209.51 884.3,2221.8 903.536,2227.14C922.773,2232.48 919.567,2224.47 919.567,2224.47C919.567,2224.47 905.674,2163.55 898.193,2159.81C890.712,2156.07 892.849,2132.56 847.964,2109.05C803.079,2085.54 789.104,2112.76 791.015,2109.04"/>
        </g>
        <g id="Layer8">
            <path d="M1121.28,904.893L1110.78,983.602L1154.07,1022.96L1106.85,1058.38L1121.28,1126.59" style="fill:none;stroke:black;stroke-width:19.91px;stroke-linecap:round;"/>
            <path d="M1130.46,949.495L1171.13,978.355L1224.91,1020.33L1217.04,1055.75" style="fill:none;stroke:black;stroke-width:19.91px;stroke-linecap:round;"/>
            <path d="M1109.88,962.587L1031.51,1030.27" style="fill:none;stroke:black;stroke-width:19.91px;stroke-linecap:round;"/>
            <path d="M1362.81,891.34L1323.62,1012.46L1387.75,1097.95L1366.37,1179.89" style="fill:none;stroke:black;stroke-width:19.91px;stroke-linecap:round;"/>
            <path d="M1330.75,1019.58L1309.38,1083.71" style="fill:none;stroke:black;stroke-width:19.91px;stroke-linecap:round;"/>
            <path d="M1359.25,944.775L1402,1005.34L1387.75,1040.96" style="fill:none;stroke:black;stroke-width:19.91px;stroke-linecap:round;"/>
            <g transform="matrix(1,0,0,1,-27.3341,56.9973)">
                <path d="M824.453,2658.92L843.6,2697.21L805.305,2697.21L824.453,2658.92Z" style="stroke:black;stroke-width:19.91px;stroke-linecap:round;"/>
            </g>
            <g transform="matrix(1,0,0,1,320.712,58.3069)">
                <path d="M824.453,2658.92L843.6,2697.21L805.305,2697.21L824.453,2658.92Z" style="stroke:black;stroke-width:19.91px;stroke-linecap:round;"/>
            </g>
            <g transform="matrix(1,0,0,1,729.748,53.4746)">
                <path d="M824.453,2658.92L843.6,2697.21L805.305,2697.21L824.453,2658.92Z" style="stroke:black;stroke-width:19.91px;stroke-linecap:round;"/>
            </g>
        </g>
        <g transform="matrix(1,0,0,1,-51.7941,30.6056)">
            <g id="Layer9">
                <text x="620.982px" y="2702.71px" style="font-family:'Gabriola', fantasy;font-size:300px;">C    <tspan x="979.356px " y="2702.71px ">S</tspan>     H     R</text>
            </g>
        </g>
    </g>
</svg>
